<svg width="80" height="80" viewBox="0 0 80 80" xmlns="http://www.w3.org/2000/svg">
  <defs>
    <linearGradient id="grad03" x1="0%" y1="0%" x2="100%" y2="100%">
      <stop offset="0%" stop-color="#34D399"/>
      <stop offset="100%" stop-color="#059669"/>
    </linearGradient>
  </defs>
  <rect width="80" height="80" rx="18" fill="url(#grad03)"/>
  <path d="M49.5 24h-19c-3.05 0-5.5 2.45-5.5 5.5v21c0 3.05 2.45 5.5 5.5 5.5h19c3.05 0 5.5-2.45 5.5-5.5v-21c0-3.05-2.45-5.5-5.5-5.5Zm1.5 24.5c0 .83-.67 1.5-1.5 1.5H30.5c-.83 0-1.5-.67-1.5-1.5v-6c0-.83.67-1.5 1.5-1.5h19c.83 0 1.5.67 1.5 1.5v6Zm0-12c0 .83-.67 1.5-1.5 1.5h-19c-.83 0-1.5-.67-1.5-1.5v-6c0-.83.67-1.5 1.5-1.5h19c.83 0 1.5.67 1.5 1.5v6Z" fill="#ECFDF5"/>
</svg>
