<svg width="80" height="80" viewBox="0 0 80 80" xmlns="http://www.w3.org/2000/svg">
  <defs>
    <linearGradient id="grad02" x1="10%" y1="0%" x2="90%" y2="100%">
      <stop offset="0%" stop-color="#F472B6"/>
      <stop offset="100%" stop-color="#DB2777"/>
    </linearGradient>
  </defs>
  <rect width="80" height="80" rx="18" fill="url(#grad02)"/>
  <path d="M52.8 24H27.2C24.88 24 23 25.9 23 28.25v23.5C23 54.1 24.88 56 27.2 56h25.6c2.32 0 4.2-1.9 4.2-4.25v-23.5C57 25.9 55.12 24 52.8 24Zm-9.8 25.4c0 .88-.72 1.6-1.6 1.6h-3.2c-.88 0-1.6-.72-1.6-1.6V46h6.4v3.4Zm11.2-5.8H26.8V29.8c0-.88.72-1.6 1.6-1.6h22.4c.88 0 1.6.72 1.6 1.6V43.6Z" fill="#FDF2F8"/>
  <circle cx="40" cy="36" r="5" fill="#FBCFE8"/>
</svg>
